# Blender 3.4.0
# www.blender.org
mtllib house.mtl
o Cube
v 1.000000 1.000000 -1.000000
v 1.000000 -1.000000 -1.000000
v 1.000000 1.000000 1.000000
v 1.000000 -1.000000 1.000000
v -1.000000 1.000000 -1.000000
v -1.000000 -1.000000 -1.000000
v -1.000000 1.000000 1.000000
v -1.000000 -1.000000 1.000000
v 1.000000 0.671040 -1.000000
v -1.000000 0.671040 1.000000
v 1.000000 0.671040 1.000000
v -1.000000 0.671040 -1.000000
v 1.320544 1.245361 -1.320544
v 1.320544 1.245361 1.320544
v -1.320544 1.245361 -1.320544
v -1.320544 1.245361 1.320544
v 0.484506 1.983251 -0.484506
v 0.484506 1.983251 0.484506
v -0.484506 1.983251 -0.484506
v -0.484506 1.983251 0.484506
v 0.484506 1.983251 0.484506
v -0.484506 1.983251 0.484506
v 0.484506 1.983251 -0.484506
v -0.484506 1.983251 -0.484506
v 0.484506 1.983251 -0.484506
v 0.484506 1.983251 -0.484506
v 0.484506 1.983251 0.484506
v 0.484506 1.983251 0.484506
v -0.484506 1.983251 0.484506
v -0.484506 1.983251 0.484506
v -0.484506 1.983251 -0.484506
v -0.484506 1.983251 -0.484506
v -1.000000 -1.000000 -0.315000
v 1.000000 1.000000 -0.315000
v -1.000000 1.000000 -0.315000
v 1.000000 -1.000000 -0.315000
v 1.000000 0.671040 -0.315000
v -1.000000 0.671040 -0.315000
v 1.320544 1.245361 -0.315000
v -1.320544 1.245361 -0.315000
v 0.484506 1.983251 -0.315000
v -0.484506 1.983251 -0.315000
v 0.484506 1.983251 -0.315000
v -0.484506 1.983251 -0.315000
v 0.484506 1.983251 -0.315000
v 0.484506 1.983251 -0.315000
v -0.484506 1.983251 -0.315000
v -0.484506 1.983251 -0.315000
v -1.000000 -1.000000 0.386234
v 1.000000 1.000000 0.386234
v 1.000000 0.671040 0.386234
v 1.320544 1.245361 0.546506
v 0.484506 1.983251 0.128487
v 0.484506 1.983251 0.128487
v 0.484506 1.983251 0.128487
v -0.484506 1.983251 0.128487
v -1.000000 1.000000 0.386234
v 1.000000 -1.000000 0.386234
v -1.000000 0.671040 0.386234
v -1.320544 1.245361 0.546506
v -0.484506 1.983251 0.128487
v -0.484506 1.983251 0.128487
v 0.484506 1.983251 0.128487
v -0.484506 1.983251 0.128487
v 1.000000 0.122186 -1.000000
v 1.000000 0.122186 1.000000
v -1.000000 0.122186 -1.000000
v -1.000000 0.122186 1.000000
v -1.000000 0.122186 -0.315000
v 1.000000 0.122186 -0.315000
v -1.000000 0.122186 0.386234
v 1.000000 0.122186 0.386234
v 1.000000 -0.939720 -1.000000
v 1.000000 -0.939720 1.000000
v -1.000000 -0.939720 -1.000000
v -1.000000 -0.939720 -0.315000
v 1.000000 -0.939720 -0.315000
v -1.000000 -0.939720 0.386234
v 1.000000 -0.939720 0.386234
v -1.000000 -0.939720 1.000000
v 0.032091 0.122186 0.386234
v 0.032091 0.122186 -0.315000
v 0.032091 -0.939720 -0.315000
v 0.032091 -0.939720 0.386234
v -2.020022 -1.000000 0.386234
v -2.020022 -1.000000 1.000000
v -2.020022 -0.939720 -1.000000
v -2.020022 -1.000000 -1.000000
v -2.020022 -1.000000 -0.315000
v -2.020022 -0.939720 -0.315000
v -2.020022 -0.939720 0.386234
v -2.020022 -0.939720 1.000000
vn -0.0000 -0.7941 0.6078
vn -0.0000 -0.0000 1.0000
vn -1.0000 -0.0000 -0.0000
vn -0.0000 -1.0000 -0.0000
vn 1.0000 -0.0000 -0.0000
vn -0.0000 -0.0000 -1.0000
vn -0.0000 1.0000 -0.0000
vn -0.6078 -0.7941 -0.0000
vn 0.6078 -0.7941 -0.0000
vn -0.0000 -0.7941 -0.6078
vn -0.0000 0.7497 -0.6617
vn 0.6617 0.7497 -0.0000
vn -0.0000 0.7497 0.6617
vn -0.6617 0.7497 -0.0000
vt 0.625000 0.500000
vt 0.375000 0.500000
vt 0.625000 0.750000
vt 0.375000 0.750000
vt 0.625000 0.250000
vt 0.125000 0.500000
vt 0.375000 0.250000
vt 0.625000 1.000000
vt 0.625000 0.000000
vt 0.375000 1.000000
vt 0.125000 0.750000
vt 0.500000 0.500000
vt 0.500000 1.000000
vt 0.500000 0.000000
vt 0.500000 0.750000
vt 0.500000 0.250000
vt 0.625000 0.500000
vt 0.625000 0.750000
vt 0.625000 0.250000
vt 0.625000 1.000000
vt 0.625000 0.000000
vt 0.625000 0.500000
vt 0.625000 0.750000
vt 0.875000 0.500000
vt 0.875000 0.750000
vt 0.625000 0.750000
vt 0.625000 1.000000
vt 0.875000 0.750000
vt 0.625000 0.000000
vt 0.625000 0.500000
vt 0.625000 0.250000
vt 0.875000 0.500000
vt 0.625000 0.500000
vt 0.625000 0.500000
vt 0.625000 0.750000
vt 0.625000 0.750000
vt 0.625000 1.000000
vt 0.625000 0.000000
vt 0.875000 0.750000
vt 0.625000 0.250000
vt 0.875000 0.500000
vt 0.125000 0.625000
vt 0.625000 0.625000
vt 0.625000 0.125000
vt 0.375000 0.625000
vt 0.500000 0.625000
vt 0.500000 0.125000
vt 0.625000 0.625000
vt 0.625000 0.125000
vt 0.625000 0.625000
vt 0.875000 0.625000
vt 0.625000 0.625000
vt 0.625000 0.125000
vt 0.875000 0.625000
vt 0.625000 0.625000
vt 0.625000 0.625000
vt 0.875000 0.625000
vt 0.625000 0.125000
vt 0.125000 0.687500
vt 0.625000 0.687500
vt 0.500000 0.687500
vt 0.625000 0.687500
vt 0.625000 0.687500
vt 0.625000 0.687500
vt 0.625000 0.687500
vt 0.875000 0.687500
vt 0.625000 0.062500
vt 0.375000 0.687500
vt 0.500000 0.062500
vt 0.625000 0.062500
vt 0.875000 0.687500
vt 0.625000 0.062500
vt 0.875000 0.687500
vt 0.625000 0.687500
vt 0.625000 0.062500
vt 0.437500 0.500000
vt 0.437500 0.750000
vt 0.437500 0.250000
vt 0.437500 0.000000
vt 0.437500 1.000000
vt 0.437500 0.125000
vt 0.437500 0.625000
vt 0.437500 0.062500
vt 0.437500 0.687500
vt 0.406250 0.500000
vt 0.406250 0.750000
vt 0.406250 0.250000
vt 0.406250 0.125000
vt 0.406250 0.625000
vt 0.406250 0.062500
vt 0.406250 0.687500
vt 0.406250 0.000000
vt 0.406250 1.000000
vt 0.437500 0.062500
vt 0.437500 0.125000
vt 0.406250 0.125000
vt 0.406250 0.062500
vt 0.375000 0.062500
vt 0.125000 0.687500
vt 0.375000 0.000000
vt 0.375000 1.000000
vt 0.125000 0.750000
vt 0.406250 0.250000
vt 0.375000 0.250000
vt 0.125000 0.500000
vt 0.375000 0.125000
vt 0.125000 0.625000
vt 0.406250 0.125000
vt 0.406250 0.062500
vt 0.406250 1.000000
vt 0.406250 0.000000
s 0
usemtl Material
f 3/3/1 16/20/1 7/8/1
f 3/3/2 10/13/2 11/15/2
f 35/44/3 12/16/3 38/47/3
f 58/68/4 8/11/4 49/59/4
f 50/60/5 11/15/5 51/61/5
f 5/5/6 9/12/6 12/16/6
f 12/16/6 65/76/6 67/78/6
f 51/61/5 66/77/5 72/84/5
f 38/47/3 67/78/3 69/81/3
f 11/15/2 68/80/2 66/77/2
f 62/73/7 30/39/7 56/66/7
f 7/9/8 60/70/8 57/67/8
f 1/1/9 39/48/9 34/43/9
f 5/5/10 13/17/10 1/1/10
f 61/71/7 18/23/7 53/63/7
f 22/28/7 28/36/7 30/39/7
f 23/30/7 32/41/7 26/34/7
f 43/52/7 26/34/7 45/55/7
f 46/56/7 23/30/7 43/52/7
f 29/37/7 21/26/7 22/27/7
f 25/33/7 24/31/7 23/30/7
f 64/75/7 22/29/7 62/72/7
f 45/55/7 17/22/7 41/50/7
f 15/19/11 25/33/11 13/17/11
f 39/48/12 25/33/12 46/56/12
f 30/39/7 18/23/7 20/25/7
f 14/18/13 29/37/13 16/20/13
f 56/66/7 20/25/7 61/71/7
f 26/34/7 19/24/7 17/22/7
f 60/70/14 29/38/14 64/75/14
f 40/49/14 31/40/14 15/19/14
f 32/41/7 42/51/7 19/24/7
f 39/48/12 55/65/12 52/62/12
f 63/74/7 41/50/7 53/63/7
f 31/40/7 44/53/7 24/31/7
f 55/65/7 43/52/7 54/64/7
f 54/64/7 45/55/7 63/74/7
f 19/24/7 41/50/7 17/22/7
f 50/60/9 39/48/9 52/62/9
f 5/5/8 40/49/8 15/19/8
f 24/32/7 47/57/7 32/41/7
f 59/69/3 69/81/3 71/83/3
f 9/12/5 70/82/5 65/76/5
f 1/1/5 37/46/5 9/12/5
f 2/2/4 33/42/4 6/6/4
f 57/67/3 38/47/3 59/69/3
f 7/9/3 59/69/3 10/14/3
f 10/14/3 71/83/3 68/79/3
f 3/3/9 52/62/9 14/18/9
f 21/26/7 63/74/7 28/36/7
f 27/35/7 54/64/7 21/26/7
f 28/36/7 53/63/7 18/23/7
f 52/62/12 27/35/12 14/18/12
f 40/49/14 64/75/14 48/58/14
f 47/57/7 61/71/7 42/51/7
f 48/58/7 62/72/7 44/53/7
f 42/51/7 53/63/7 41/50/7
f 57/67/8 40/49/8 35/44/8
f 44/54/7 56/66/7 47/57/7
f 37/46/5 72/84/5 70/82/5
f 34/43/5 51/61/5 37/46/5
f 36/45/4 49/59/4 33/42/4
f 70/82/5 79/91/5 77/89/5
f 68/79/3 78/90/3 80/92/3
f 65/76/5 77/89/5 73/85/5
f 71/83/6 84/97/6 78/90/6
f 66/77/2 80/93/2 74/86/2
f 69/81/3 75/87/3 76/88/3
f 72/84/5 74/86/5 79/91/5
f 67/78/6 73/85/6 75/87/6
f 75/87/6 2/2/6 6/7/6
f 79/91/5 4/4/5 58/68/5
f 78/90/7 92/111/7 80/92/7
f 74/86/2 8/10/2 4/4/2
f 49/59/4 89/107/4 33/42/4
f 73/85/5 36/45/5 2/2/5
f 80/93/2 86/101/2 8/10/2
f 77/89/5 58/68/5 36/45/5
f 81/94/3 83/96/3 84/97/3
f 76/88/2 82/95/2 69/81/2
f 78/90/7 83/96/7 76/88/7
f 69/81/4 81/94/4 71/83/4
f 90/108/3 88/104/3 89/106/3
f 91/109/3 89/106/3 85/98/3
f 92/111/3 85/98/3 86/100/3
f 8/11/4 85/99/4 49/59/4
f 76/88/7 91/109/7 78/90/7
f 75/87/7 90/108/7 76/88/7
f 6/7/6 87/103/6 75/87/6
f 33/42/4 88/105/4 6/6/4
f 3/3/1 14/18/1 16/20/1
f 3/3/2 7/8/2 10/13/2
f 35/44/3 5/5/3 12/16/3
f 58/68/4 4/4/4 8/11/4
f 50/60/5 3/3/5 11/15/5
f 5/5/6 1/1/6 9/12/6
f 12/16/6 9/12/6 65/76/6
f 51/61/5 11/15/5 66/77/5
f 38/47/3 12/16/3 67/78/3
f 11/15/2 10/13/2 68/80/2
f 62/73/7 22/28/7 30/39/7
f 7/9/8 16/21/8 60/70/8
f 1/1/9 13/17/9 39/48/9
f 5/5/10 15/19/10 13/17/10
f 61/71/7 20/25/7 18/23/7
f 22/28/7 21/26/7 28/36/7
f 23/30/7 24/32/7 32/41/7
f 43/52/7 23/30/7 26/34/7
f 46/56/7 25/33/7 23/30/7
f 29/37/7 27/35/7 21/26/7
f 25/33/7 31/40/7 24/31/7
f 64/75/7 29/38/7 22/29/7
f 45/55/7 26/34/7 17/22/7
f 15/19/11 31/40/11 25/33/11
f 39/48/12 13/17/12 25/33/12
f 30/39/7 28/36/7 18/23/7
f 14/18/13 27/35/13 29/37/13
f 56/66/7 30/39/7 20/25/7
f 26/34/7 32/41/7 19/24/7
f 60/70/14 16/21/14 29/38/14
f 40/49/14 48/58/14 31/40/14
f 32/41/7 47/57/7 42/51/7
f 39/48/12 46/56/12 55/65/12
f 63/74/7 45/55/7 41/50/7
f 31/40/7 48/58/7 44/53/7
f 55/65/7 46/56/7 43/52/7
f 54/64/7 43/52/7 45/55/7
f 19/24/7 42/51/7 41/50/7
f 50/60/9 34/43/9 39/48/9
f 5/5/8 35/44/8 40/49/8
f 24/32/7 44/54/7 47/57/7
f 59/69/3 38/47/3 69/81/3
f 9/12/5 37/46/5 70/82/5
f 1/1/5 34/43/5 37/46/5
f 2/2/4 36/45/4 33/42/4
f 57/67/3 35/44/3 38/47/3
f 7/9/3 57/67/3 59/69/3
f 10/14/3 59/69/3 71/83/3
f 3/3/9 50/60/9 52/62/9
f 21/26/7 54/64/7 63/74/7
f 27/35/7 55/65/7 54/64/7
f 28/36/7 63/74/7 53/63/7
f 52/62/12 55/65/12 27/35/12
f 40/49/14 60/70/14 64/75/14
f 47/57/7 56/66/7 61/71/7
f 48/58/7 64/75/7 62/72/7
f 42/51/7 61/71/7 53/63/7
f 57/67/8 60/70/8 40/49/8
f 44/54/7 62/73/7 56/66/7
f 37/46/5 51/61/5 72/84/5
f 34/43/5 50/60/5 51/61/5
f 36/45/4 58/68/4 49/59/4
f 70/82/5 72/84/5 79/91/5
f 68/79/3 71/83/3 78/90/3
f 65/76/5 70/82/5 77/89/5
f 71/83/6 81/94/6 84/97/6
f 66/77/2 68/80/2 80/93/2
f 69/81/3 67/78/3 75/87/3
f 72/84/5 66/77/5 74/86/5
f 67/78/6 65/76/6 73/85/6
f 75/87/6 73/85/6 2/2/6
f 79/91/5 74/86/5 4/4/5
f 78/90/7 91/109/7 92/111/7
f 74/86/2 80/93/2 8/10/2
f 49/59/4 85/99/4 89/107/4
f 73/85/5 77/89/5 36/45/5
f 80/93/2 92/110/2 86/101/2
f 77/89/5 79/91/5 58/68/5
f 81/94/3 82/95/3 83/96/3
f 76/88/2 83/96/2 82/95/2
f 78/90/7 84/97/7 83/96/7
f 69/81/4 82/95/4 81/94/4
f 90/108/3 87/103/3 88/104/3
f 91/109/3 90/108/3 89/106/3
f 92/111/3 91/109/3 85/98/3
f 8/11/4 86/102/4 85/99/4
f 76/88/7 90/108/7 91/109/7
f 75/87/7 87/103/7 90/108/7
f 6/7/6 88/104/6 87/103/6
f 33/42/4 89/107/4 88/105/4
