# Blender 3.4.0
# www.blender.org
mtllib house_2.mtl
o Cube
v 1.000000 1.000000 -1.000000
v 1.000000 -1.000000 -1.000000
v 1.000000 1.000000 1.000000
v 1.000000 -1.000000 1.000000
v -1.000000 1.000000 -1.000000
v -1.000000 -1.000000 -1.000000
v -1.000000 1.000000 1.000000
v -1.000000 -1.000000 1.000000
v 1.000000 0.671040 -1.000000
v -1.000000 0.671040 1.000000
v 1.000000 0.671040 1.000000
v -1.000000 0.671040 -1.000000
v 1.320544 1.245361 -1.320544
v 1.320544 1.245361 1.320544
v -1.320544 1.245361 -1.320544
v -1.320544 1.245361 1.320544
v 0.484506 1.983251 -0.484506
v 0.484506 1.983251 0.484506
v -0.484506 1.983251 -0.484506
v -0.484506 1.983251 0.484506
v 0.484506 1.983251 0.484506
v -0.484506 1.983251 0.484506
v 0.484506 1.983251 -0.484506
v -0.484506 1.983251 -0.484506
v 0.484506 1.983251 -0.484506
v 0.484506 1.983251 -0.484506
v 0.484506 1.983251 0.484506
v 0.484506 1.983251 0.484506
v -0.484506 1.983251 0.484506
v -0.484506 1.983251 0.484506
v -0.484506 1.983251 -0.484506
v -0.484506 1.983251 -0.484506
v -1.000000 -1.000000 -0.315000
v 1.000000 1.000000 -0.315000
v -1.000000 1.000000 -0.315000
v 1.000000 -1.000000 -0.315000
v 1.000000 0.671040 -0.315000
v -1.000000 0.671040 -0.315000
v 1.320544 1.245361 -0.315000
v -1.320544 1.245361 -0.315000
v 0.484506 1.983251 -0.315000
v -0.484506 1.983251 -0.315000
v 0.484506 1.983251 -0.315000
v -0.484506 1.983251 -0.315000
v 0.484506 1.983251 -0.315000
v 0.484506 1.983251 -0.315000
v -0.484506 1.983251 -0.315000
v -0.484506 1.983251 -0.315000
v -1.000000 -1.000000 0.386234
v 1.000000 1.000000 0.386234
v 1.000000 0.671040 0.386234
v 1.320544 1.245361 0.546506
v 0.484506 1.983251 0.128487
v 0.484506 1.983251 0.128487
v 0.484506 1.983251 0.128487
v -0.484506 1.983251 0.128487
v -1.000000 1.000000 0.386234
v 1.000000 -1.000000 0.386234
v -1.000000 0.671040 0.386234
v -1.320544 1.245361 0.546506
v -0.484506 1.983251 0.128487
v -0.484506 1.983251 0.128487
v 0.484506 1.983251 0.128487
v -0.484506 1.983251 0.128487
v 1.000000 0.122186 -1.000000
v 1.000000 0.122186 1.000000
v -1.000000 0.122186 -1.000000
v -1.000000 0.122186 1.000000
v -1.000000 0.122186 -0.315000
v 1.000000 0.122186 -0.315000
v -1.000000 0.122186 0.386234
v 1.000000 0.122186 0.386234
v 1.000000 -0.939720 -1.000000
v 1.000000 -0.939720 1.000000
v -1.000000 -0.939720 -1.000000
v -1.000000 -0.939720 -0.315000
v 1.000000 -0.939720 -0.315000
v -1.000000 -0.939720 0.386234
v 1.000000 -0.939720 0.386234
v -1.000000 -0.939720 1.000000
v 0.032091 0.122186 0.386234
v 0.032091 0.122186 -0.315000
v 0.032091 -0.939720 -0.315000
v 0.032091 -0.939720 0.386234
v -2.020022 -1.000000 0.386234
v -2.020022 -1.000000 1.000000
v -2.020022 -0.939720 -1.000000
v -2.020022 -1.000000 -1.000000
v -2.020022 -1.000000 -0.315000
v -2.020022 -0.939720 -0.315000
v -2.020022 -0.939720 0.386234
v -2.020022 -0.939720 1.000000
vn -0.0000 -0.7941 0.6078
vn -0.0000 -0.0000 1.0000
vn -1.0000 -0.0000 -0.0000
vn -0.0000 -1.0000 -0.0000
vn 1.0000 -0.0000 -0.0000
vn -0.0000 -0.0000 -1.0000
vn -0.0000 1.0000 -0.0000
vn -0.6078 -0.7941 -0.0000
vn 0.6078 -0.7941 -0.0000
vn -0.0000 -0.7941 -0.6078
vn -0.0000 0.7497 -0.6617
vn 0.6617 0.7497 -0.0000
vn -0.0000 0.7497 0.6617
vn -0.6617 0.7497 -0.0000
vt 0.576813 0.276748
vt 0.547038 0.737491
vt 0.097560 0.257357
vt 0.084967 0.730718
vt 0.703665 0.318574
vt 0.660875 0.889681
vt 0.102237 0.295483
vt 0.086259 0.886120
vt 0.571761 0.354916
vt 0.099502 0.396591
vt 0.095422 0.337731
vt 0.696349 0.416214
vt 0.637270 0.217666
vt 0.021555 0.190626
vt 0.833295 0.254513
vt 0.000091 0.219258
vt 0.491085 0.025858
vt 0.241274 0.012309
vt 0.540274 0.015449
vt 0.260885 0.000091
vt 0.241274 0.012309
vt 0.260885 0.000091
vt 0.491085 0.025858
vt 0.540274 0.015449
vt 0.491085 0.025858
vt 0.491085 0.025858
vt 0.241274 0.012309
vt 0.241274 0.012309
vt 0.260885 0.000091
vt 0.260885 0.000091
vt 0.540274 0.015449
vt 0.540274 0.015449
vt 0.468162 0.888486
vt 0.415512 0.270221
vt 0.502166 0.310837
vt 0.391420 0.735210
vt 0.411424 0.349131
vt 0.496350 0.409638
vt 0.407761 0.207587
vt 0.525096 0.241472
vt 0.447883 0.023515
vt 0.492023 0.012797
vt 0.447883 0.023515
vt 0.492023 0.012797
vt 0.447883 0.023515
vt 0.447883 0.023515
vt 0.492023 0.012797
vt 0.492023 0.012797
vt 0.266508 0.887237
vt 0.247345 0.263417
vt 0.244280 0.343101
vt 0.206371 0.198743
vt 0.333859 0.017330
vt 0.333859 0.017330
vt 0.333859 0.017330
vt 0.364541 0.005789
vt 0.291096 0.302734
vt 0.229286 0.732834
vt 0.286889 0.402752
vt 0.252336 0.229931
vt 0.364541 0.005789
vt 0.364541 0.005789
vt 0.333859 0.017330
vt 0.364541 0.005789
vt 0.563471 0.483201
vt 0.091914 0.469579
vt 0.684393 0.575790
vt 0.095035 0.561720
vt 0.486847 0.571074
vt 0.404715 0.478615
vt 0.280016 0.566136
vt 0.239250 0.473835
vt 0.547903 0.724097
vt 0.085334 0.716970
vt 0.662108 0.873227
vt 0.469141 0.871852
vt 0.392120 0.721697
vt 0.267216 0.870414
vt 0.229810 0.719196
vt 0.086719 0.869129
vt 0.256679 0.513297
vt 0.439876 0.518197
vt 0.425186 0.786160
vt 0.245849 0.784034
vt 0.293670 0.999909
vt 0.087204 0.999909
vt 0.744862 0.981289
vt 0.743325 0.999909
vt 0.523948 0.999909
vt 0.525157 0.981058
vt 0.294524 0.980815
vt 0.087733 0.980598
s 0
usemtl Material
f 3/3/1 16/16/1 7/7/1
f 3/3/2 10/10/2 11/11/2
f 35/35/3 12/12/3 38/38/3
f 58/58/4 8/8/4 49/49/4
f 50/50/5 11/11/5 51/51/5
f 5/5/6 9/9/6 12/12/6
f 12/12/6 65/65/6 67/67/6
f 51/51/5 66/66/5 72/72/5
f 38/38/3 67/67/3 69/69/3
f 11/11/2 68/68/2 66/66/2
f 62/62/7 30/30/7 56/56/7
f 7/7/8 60/60/8 57/57/8
f 1/1/9 39/39/9 34/34/9
f 5/5/10 13/13/10 1/1/10
f 61/61/7 18/18/7 53/53/7
f 22/22/7 28/28/7 30/30/7
f 23/23/7 32/32/7 26/26/7
f 43/43/7 26/26/7 45/45/7
f 46/46/7 23/23/7 43/43/7
f 29/29/7 21/21/7 22/22/7
f 25/25/7 24/24/7 23/23/7
f 64/64/7 22/22/7 62/62/7
f 45/45/7 17/17/7 41/41/7
f 15/15/11 25/25/11 13/13/11
f 39/39/12 25/25/12 46/46/12
f 30/30/7 18/18/7 20/20/7
f 14/14/13 29/29/13 16/16/13
f 56/56/7 20/20/7 61/61/7
f 26/26/7 19/19/7 17/17/7
f 60/60/14 29/29/14 64/64/14
f 40/40/14 31/31/14 15/15/14
f 32/32/7 42/42/7 19/19/7
f 39/39/12 55/55/12 52/52/12
f 63/63/7 41/41/7 53/53/7
f 31/31/7 44/44/7 24/24/7
f 55/55/7 43/43/7 54/54/7
f 54/54/7 45/45/7 63/63/7
f 19/19/7 41/41/7 17/17/7
f 50/50/9 39/39/9 52/52/9
f 5/5/8 40/40/8 15/15/8
f 24/24/7 47/47/7 32/32/7
f 59/59/3 69/69/3 71/71/3
f 9/9/5 70/70/5 65/65/5
f 1/1/5 37/37/5 9/9/5
f 2/2/4 33/33/4 6/6/4
f 57/57/3 38/38/3 59/59/3
f 7/7/3 59/59/3 10/10/3
f 10/10/3 71/71/3 68/68/3
f 3/3/9 52/52/9 14/14/9
f 21/21/7 63/63/7 28/28/7
f 27/27/7 54/54/7 21/21/7
f 28/28/7 53/53/7 18/18/7
f 52/52/12 27/27/12 14/14/12
f 40/40/14 64/64/14 48/48/14
f 47/47/7 61/61/7 42/42/7
f 48/48/7 62/62/7 44/44/7
f 42/42/7 53/53/7 41/41/7
f 57/57/8 40/40/8 35/35/8
f 44/44/7 56/56/7 47/47/7
f 37/37/5 72/72/5 70/70/5
f 34/34/5 51/51/5 37/37/5
f 36/36/4 49/49/4 33/33/4
f 70/70/5 79/79/5 77/77/5
f 68/68/3 78/78/3 80/80/3
f 65/65/5 77/77/5 73/73/5
f 71/71/6 84/84/6 78/78/6
f 66/66/2 80/80/2 74/74/2
f 69/69/3 75/75/3 76/76/3
f 72/72/5 74/74/5 79/79/5
f 67/67/6 73/73/6 75/75/6
f 75/75/6 2/2/6 6/6/6
f 79/79/5 4/4/5 58/58/5
f 78/78/7 92/92/7 80/80/7
f 74/74/2 8/8/2 4/4/2
f 49/49/4 89/89/4 33/33/4
f 73/73/5 36/36/5 2/2/5
f 80/80/2 86/86/2 8/8/2
f 77/77/5 58/58/5 36/36/5
f 81/81/3 83/83/3 84/84/3
f 76/76/2 82/82/2 69/69/2
f 78/78/7 83/83/7 76/76/7
f 69/69/4 81/81/4 71/71/4
f 90/90/3 88/88/3 89/89/3
f 91/91/3 89/89/3 85/85/3
f 92/92/3 85/85/3 86/86/3
f 8/8/4 85/85/4 49/49/4
f 76/76/7 91/91/7 78/78/7
f 75/75/7 90/90/7 76/76/7
f 6/6/6 87/87/6 75/75/6
f 33/33/4 88/88/4 6/6/4
f 3/3/1 14/14/1 16/16/1
f 3/3/2 7/7/2 10/10/2
f 35/35/3 5/5/3 12/12/3
f 58/58/4 4/4/4 8/8/4
f 50/50/5 3/3/5 11/11/5
f 5/5/6 1/1/6 9/9/6
f 12/12/6 9/9/6 65/65/6
f 51/51/5 11/11/5 66/66/5
f 38/38/3 12/12/3 67/67/3
f 11/11/2 10/10/2 68/68/2
f 62/62/7 22/22/7 30/30/7
f 7/7/8 16/16/8 60/60/8
f 1/1/9 13/13/9 39/39/9
f 5/5/10 15/15/10 13/13/10
f 61/61/7 20/20/7 18/18/7
f 22/22/7 21/21/7 28/28/7
f 23/23/7 24/24/7 32/32/7
f 43/43/7 23/23/7 26/26/7
f 46/46/7 25/25/7 23/23/7
f 29/29/7 27/27/7 21/21/7
f 25/25/7 31/31/7 24/24/7
f 64/64/7 29/29/7 22/22/7
f 45/45/7 26/26/7 17/17/7
f 15/15/11 31/31/11 25/25/11
f 39/39/12 13/13/12 25/25/12
f 30/30/7 28/28/7 18/18/7
f 14/14/13 27/27/13 29/29/13
f 56/56/7 30/30/7 20/20/7
f 26/26/7 32/32/7 19/19/7
f 60/60/14 16/16/14 29/29/14
f 40/40/14 48/48/14 31/31/14
f 32/32/7 47/47/7 42/42/7
f 39/39/12 46/46/12 55/55/12
f 63/63/7 45/45/7 41/41/7
f 31/31/7 48/48/7 44/44/7
f 55/55/7 46/46/7 43/43/7
f 54/54/7 43/43/7 45/45/7
f 19/19/7 42/42/7 41/41/7
f 50/50/9 34/34/9 39/39/9
f 5/5/8 35/35/8 40/40/8
f 24/24/7 44/44/7 47/47/7
f 59/59/3 38/38/3 69/69/3
f 9/9/5 37/37/5 70/70/5
f 1/1/5 34/34/5 37/37/5
f 2/2/4 36/36/4 33/33/4
f 57/57/3 35/35/3 38/38/3
f 7/7/3 57/57/3 59/59/3
f 10/10/3 59/59/3 71/71/3
f 3/3/9 50/50/9 52/52/9
f 21/21/7 54/54/7 63/63/7
f 27/27/7 55/55/7 54/54/7
f 28/28/7 63/63/7 53/53/7
f 52/52/12 55/55/12 27/27/12
f 40/40/14 60/60/14 64/64/14
f 47/47/7 56/56/7 61/61/7
f 48/48/7 64/64/7 62/62/7
f 42/42/7 61/61/7 53/53/7
f 57/57/8 60/60/8 40/40/8
f 44/44/7 62/62/7 56/56/7
f 37/37/5 51/51/5 72/72/5
f 34/34/5 50/50/5 51/51/5
f 36/36/4 58/58/4 49/49/4
f 70/70/5 72/72/5 79/79/5
f 68/68/3 71/71/3 78/78/3
f 65/65/5 70/70/5 77/77/5
f 71/71/6 81/81/6 84/84/6
f 66/66/2 68/68/2 80/80/2
f 69/69/3 67/67/3 75/75/3
f 72/72/5 66/66/5 74/74/5
f 67/67/6 65/65/6 73/73/6
f 75/75/6 73/73/6 2/2/6
f 79/79/5 74/74/5 4/4/5
f 78/78/7 91/91/7 92/92/7
f 74/74/2 80/80/2 8/8/2
f 49/49/4 85/85/4 89/89/4
f 73/73/5 77/77/5 36/36/5
f 80/80/2 92/92/2 86/86/2
f 77/77/5 79/79/5 58/58/5
f 81/81/3 82/82/3 83/83/3
f 76/76/2 83/83/2 82/82/2
f 78/78/7 84/84/7 83/83/7
f 69/69/4 82/82/4 81/81/4
f 90/90/3 87/87/3 88/88/3
f 91/91/3 90/90/3 89/89/3
f 92/92/3 91/91/3 85/85/3
f 8/8/4 86/86/4 85/85/4
f 76/76/7 90/90/7 91/91/7
f 75/75/7 87/87/7 90/90/7
f 6/6/6 88/88/6 87/87/6
f 33/33/4 89/89/4 88/88/4
